<svg id="eFRBuSjy0hb1" xmlns="http://www.w3.org/2000/svg" xmlns:xlink="http://www.w3.org/1999/xlink"
    viewBox="0 0 1920 1080" shape-rendering="geometricPrecision" text-rendering="geometricPrecision">
    <defs>
        <linearGradient id="eFRBuSjy0hb2-fill" x1="0" y1="0.5" x2="1" y2="0.5" spreadMethod="pad"
            gradientUnits="objectBoundingBox" gradientTransform="translate(0 0)">
            <stop id="eFRBuSjy0hb2-fill-0" offset="0%" stop-color="#f241ff" />
            <stop id="eFRBuSjy0hb2-fill-1" offset="51%" stop-color="#00d1ff" />
            <stop id="eFRBuSjy0hb2-fill-2" offset="100%" stop-color="#02fd90" />
        </linearGradient>
        <linearGradient id="eFRBuSjy0hb3-fill" x1="0" y1="0.5" x2="1" y2="0.5" spreadMethod="pad"
            gradientUnits="objectBoundingBox" gradientTransform="translate(0 0)">
            <stop id="eFRBuSjy0hb3-fill-0" offset="0%" stop-color="#02fd90" />
            <stop id="eFRBuSjy0hb3-fill-1" offset="64%" stop-color="#00d1ff" />
            <stop id="eFRBuSjy0hb3-fill-2" offset="100%" stop-color="#f241ff" />
        </linearGradient>
        <linearGradient id="eFRBuSjy0hb4-fill" x1="0" y1="0.5" x2="1" y2="0.5" spreadMethod="pad"
            gradientUnits="objectBoundingBox" gradientTransform="translate(0 0)">
            <stop id="eFRBuSjy0hb4-fill-0" offset="0%" stop-color="#f241ff" />
            <stop id="eFRBuSjy0hb4-fill-1" offset="53%" stop-color="#00d1ff" />
            <stop id="eFRBuSjy0hb4-fill-2" offset="100%" stop-color="#02fd90" />
        </linearGradient>
    </defs>
    <path
        d="M439.8,200.5c-7.7-30.9-22.3-54.2-53.4-54.2h-40.1v47.4c0,36.8-31.2,67.8-66.8,67.8h-106.8c-29.2,0-53.4,25-53.4,54.3v101.8c0,29,25.2,46,53.4,54.3c33.8,9.9,66.3,11.7,106.8,0c26.9-7.8,53.4-23.5,53.4-54.3v-40.7h-106.7v-13.6h160.2c31.1,0,42.6-21.7,53.4-54.2c11.2-33.5,10.7-65.7,0-108.6ZM286.2,404c11.1,0,20.1,9.1,20.1,20.3c0,11.3-9,20.4-20.1,20.4-11,0-20.1-9.2-20.1-20.4.1-11.3,9.1-20.3,20.1-20.3ZM167.8,248.1h106.8c29.7,0,53.4-24.5,53.4-54.3v-101.9c0-29-24.4-50.7-53.4-55.6-35.8-5.9-74.7-5.6-106.8.1-45.2,8-53.4,24.7-53.4,55.6v40.7h106.9v13.6h-147C43.2,146.3,16,165,7.5,200.5c-9.8,40.7-10.2,66.1,0,108.6c7.6,31.6,25.7,54.2,56.8,54.2h36.7v-48.8c0-35.3,30.5-66.4,66.8-66.4Zm-6.7-142.6c-11.1,0-20.1-9.1-20.1-20.3.1-11.3,9-20.4,20.1-20.4c11,0,20.1,9.2,20.1,20.4s-9,20.3-20.1,20.3Z"
        transform="translate(244.594517 499.176903)" fill="url(#eFRBuSjy0hb2-fill)" />
    <path
        d="M400.1,194.8c-10.9,2.8-19.9,4.3-29.1,7.6-7.3,1.9-14.7,3.9-23.2,6.1l-.6.1c-4.2,1.2-4.6,1.3-8.5-3.2-4.7-5.3-8.1-8.7-14.6-11.9-19.7-9.6-38.7-6.8-56.4,4.7-21.2,13.7-32.1,34-31.8,59.2.3,25,17.4,45.5,41.2,48.9c22,2.8,39.8-4.6,53.8-20.5c2.1-2.6,4-5.3,6.1-8.3v0v0c.8-1,1.5-2.1,2.3-3.3h-60.1c-6.5,0-8.1-4-5.9-9.3c4-9.7,11.5-25.9,15.9-34c.9-1.8,3.1-5.8,6.9-5.8h101.1c4.5-13.4,11.8-26.9,21.6-39.7c22.7-29.9,49.3-45.5,87.2-52c31.8-5.6,61.7-2.5,88.9,15.9c24.6,16.8,39.8,39.6,43.9,69.5c5.3,42.1-6.9,76.3-36.7,105.6-19.7,20.9-44.9,34-73.9,39.9-5.6,1-11.1,1.5-16.5,2-2.9.2-5.7.5-8.5.8-28.3-.6-54.2-8.7-76-27.4-15.3-13.3-25.9-29.6-31.1-48.5-3.7,7.3-8,14.4-14,21.1-21.6,29.6-50.9,48-87.9,52.9-30.6,4.1-58.9-1.8-83.9-20.5-23-17.5-36.1-40.5-39.5-69.2-4.1-34,5.9-65.4,26.4-91.3c22.2-29,51.5-47.4,87.3-53.9c29.3-6.2,57.3-1.9,82.6,15.3c16.5,10.9,28.3,25.8,36.1,43.9c1.9,2.8.6,4.4-3.1,5.3ZM48.3,200.4c-1.2,0-1.6-.6-.9-1.6l6.5-8.4c.6-.9,2.2-1.5,3.4-1.5h111.3c1.2,0,1.5.9.9,1.8l-5.3,8.1c-.6,1-2.2,1.9-3.1,1.9l-112.8-.3ZM1.2,229.1c-1.2,0-1.5-.7-.9-1.6l6.6-8.4c.6-.9,2.1-1.6,3.4-1.6h142.1c1.2,0,1.8,1,1.5,1.9l-2.5,7.5c-.3,1.2-1.5,1.9-2.8,1.9l-147.4.3Zm74.5,26.8c-.6.9-.3,1.8,1,1.8l67.9.3c.9,0,2.2-.9,2.2-2.1l.6-7.5c0-1.3-.6-2.2-1.9-2.2h-62.3c-1.2,0-2.5.9-3.1,1.9l-4.4,7.8Zm501.5-18c-.2-2.6-.3-4.8-.7-7-5.6-30.8-34-48.3-63.6-41.4-29,6.5-47.7,24.9-54.5,54.2-5.6,24.3,6.2,48.9,28.6,58.9c17.2,7.5,34.3,6.6,50.8-1.9c24.6-13.6,38-32.7,39.6-59.5-.1-1.2-.1-2.3-.2-3.3Z"
        transform="translate(552.306306 4.102825)" fill="url(#eFRBuSjy0hb3-fill)" />
    <path
        d="M224,508c-6.7,0-13.5-1.8-19.4-5.2l-61.7-36.5c-9.2-5.2-4.7-7-1.7-8c12.3-4.3,14.8-5.2,27.9-12.7c1.4-.8,3.2-.5,4.6.4l47.4,28.1c1.7,1,4.1,1,5.7,0L411.5,367.5c1.7-1,2.8-3,2.8-5v-213.2c0-2.1-1.1-4-2.9-5.1L226.8,37.7c-1.7-1-4-1-5.7,0L36.6,144.3c-1.8,1-2.9,3-2.9,5.1v213.1c0,2,1.1,4,2.9,4.9l50.6,29.2c27.5,13.7,44.3-2.4,44.3-18.7v-210.4c0-3,2.4-5.3,5.4-5.3h23.4c2.9,0,5.4,2.3,5.4,5.3v210.5c0,36.6-20,57.6-54.7,57.6-10.7,0-19.1,0-42.5-11.6L20.1,396.1c-12-6.9-19.4-19.8-19.4-33.7v-213.1c0-13.8,7.4-26.8,19.4-33.7L204.6,9c11.7-6.6,27.2-6.6,38.8,0L428.1,115.7c12,6.9,19.4,19.8,19.4,33.7v213.1c0,13.8-7.4,26.7-19.4,33.7L243.4,502.8c-5.9,3.4-12.6,5.2-19.4,5.2ZM373.1,297.9c0-39.9-27-50.5-83.7-58-57.4-7.6-63.2-11.5-63.2-24.9c0-11.1,4.9-25.9,47.4-25.9c37.9,0,51.9,8.2,57.7,33.8.5,2.4,2.7,4.2,5.2,4.2h24c1.5,0,2.9-.6,3.9-1.7s1.5-2.6,1.4-4.1c-3.7-44.1-33-64.6-92.2-64.6-52.7,0-84.1,22.2-84.1,59.5c0,40.4,31.3,51.6,81.8,56.6c60.5,5.9,65.2,14.8,65.2,26.7c0,20.6-16.6,29.4-55.5,29.4-48.9,0-59.6-12.3-63.2-36.6-.4-2.6-2.6-4.5-5.3-4.5h-23.9c-3,0-5.3,2.4-5.3,5.3c0,31.1,16.9,68.2,97.8,68.2c58.4-.1,92-23.2,92-63.4Z"
        transform="translate(1169.724091 471.170983)" fill="url(#eFRBuSjy0hb4-fill)" />
</svg>